<svg width="241" height="75" viewBox="0 0 241 75" fill="none" xmlns="http://www.w3.org/2000/svg">
<g clip-path="url(#clip0_910_789)">
<path d="M53.801 0H0V54.1685C0 61.9517 4.41737 66.9813 12.6675 66.9813H66.5204V12.754C66.5204 4.44755 61.5249 0 53.7945 0H53.801Z" fill="url(#paint0_linear_910_789)"/>
<path d="M81.507 4.99041V13.3557H80.2532V4.99041H77.4274V3.8916H84.3133V4.99041H81.5005H81.507Z" fill="#1C2A53"/>
<path d="M92.31 13.3557V9.0259H87.1976V13.3557H85.9568V3.8916H87.1976V7.91401H92.31V3.8916H93.5768V13.3557H92.31Z" fill="#1C2A53"/>
<path d="M96.0648 13.3557V3.8916H102.535V5.00349H97.2601V7.92709H101.84V9.0259H97.2601V12.2569H102.691V13.3557H96.0583H96.0648Z" fill="#1C2A53"/>
<path d="M77.4404 38.8244V18.6665H80.1038V36.424H89.8025V38.8244H77.4404Z" fill="#1C2A53"/>
<path d="M107.225 35.5934C106.121 37.0781 103.711 39.3346 99.17 39.3346C97.9487 39.3346 94.8565 39.1907 92.2776 36.7641C90.9458 35.5084 89.1594 33.0818 89.1594 28.7128C89.1594 27.5682 89.2179 24.0886 91.6539 21.3155C93.5508 19.1767 96.4741 18.1433 99.2544 18.1433C100.612 18.1433 101.976 18.3722 103.224 18.8562C107.394 20.4848 109.323 24.2783 109.323 28.5623C109.323 29.6154 109.239 32.8464 107.225 35.5868V35.5934ZM104.874 22.9702C103.029 20.4259 100.339 20.3148 99.2609 20.3148C95.9998 20.3409 94.3563 21.9695 93.5898 23.0814C92.4854 24.6838 92.0567 26.8814 92.0567 28.7324C92.0567 31.3878 92.8492 33.1865 93.3884 34.0694C93.8691 34.8085 94.4408 35.3841 94.6616 35.5803C95.4866 36.2932 96.2207 36.6072 96.591 36.7511C97.1302 36.9473 97.9487 37.2089 99.3129 37.2089C99.8261 37.2089 101.073 37.1827 102.347 36.6072C104.276 35.7242 106.459 33.3827 106.433 28.5558C106.433 27.8429 106.433 25.1024 104.874 22.9571V22.9702Z" fill="#1C2A53"/>
<path d="M144.026 38.8244L133.054 22.4338L133.307 38.8244H130.78V18.6665H133.307L144.143 34.8281L144.032 18.6665H146.442V38.8244H144.032H144.026Z" fill="#1C2A53"/>
<path d="M77.3884 64.2343V44.0764H91.1732V46.4506H79.9414V52.6772H89.6986V55.0187H79.9414V61.8993H91.511V64.2408H77.3884V64.2343Z" fill="#1C2A53"/>
<path d="M131.703 58.5965C131.189 59.9112 129.461 63.1945 125.518 64.3653C124.102 64.7904 122.855 64.8231 122.316 64.8231C118.769 64.8231 116.755 63.3973 115.677 62.3966C114.345 61.1408 112.526 58.6292 112.526 54.2275C112.526 47.942 116.3 43.6318 122.647 43.6318C123.784 43.6318 127.552 43.7169 130.02 46.6274C130.845 47.5954 131.352 48.6288 131.781 49.793L129.085 50.3359C128.747 49.3679 128.435 48.825 128.175 48.4522C127.467 47.4515 125.765 45.7706 122.614 45.7706C122.134 45.7706 120.913 45.8294 119.691 46.3396C115.495 48.1382 115.469 52.9651 115.469 54.077C115.469 58.9301 117.768 61.2127 119.724 62.0434C120.237 62.2461 121.198 62.5601 122.647 62.5601C122.985 62.5601 123.784 62.5601 124.687 62.305C125.479 62.0761 127.35 61.3043 128.461 59.2244C128.773 58.6227 129.026 57.9686 129.286 56.654L132.177 56.9941C132.118 57.2819 131.975 57.8771 131.696 58.5965H131.703Z" fill="#1C2A53"/>
<path d="M150.015 64.3063V55.0842H139.128V64.3063H136.49V44.1484H139.128V52.7165H150.015V44.1484H152.711V64.3063H150.015Z" fill="#1C2A53"/>
<path d="M170.939 64.3063L168.757 58.1386H161.13L158.889 64.3063H156.05L163.677 44.1484H166.457L173.746 64.3063H170.939ZM165.041 47.4579L161.981 55.8821H167.964L165.041 47.4579Z" fill="#1C2A53"/>
<path d="M190.616 64.3063L179.644 47.9158L179.897 64.3063H177.37V44.1484H179.897L190.733 60.31L190.623 44.1484H193.033V64.3063H190.623H190.616Z" fill="#1C2A53"/>
<path d="M214.164 64.3062V61.4807C213.996 61.7096 213.827 62.0497 213.372 62.4814C212.378 63.4821 210.28 64.8229 206.85 64.8229C205.232 64.8229 203.732 64.5351 202.283 63.8549C200.269 62.8869 196.898 60.2315 196.898 54.4889C196.898 53.1742 197.067 49.7209 199.62 46.8365C200.782 45.5546 202.998 43.6382 207.22 43.6382C207.818 43.6382 209.318 43.6643 210.903 44.2399C211.923 44.58 214.054 45.5218 215.665 47.9811C215.977 48.4651 216.23 48.9491 216.49 49.4919L213.71 50.2049C213.424 49.3742 213.06 48.6351 212.437 47.9484C210.709 45.9535 208.039 45.862 207.305 45.862C204.271 45.862 202.679 47.2616 201.887 48.1773C201.036 49.1453 199.847 51.0617 199.847 54.1749C199.847 55.0579 199.905 57.491 201.406 59.6297C202.231 60.7743 203.816 62.4879 207.246 62.4879C207.98 62.4879 209.884 62.4029 211.67 61.1733C214.139 59.4597 214.197 56.9743 214.164 55.9213H207.188V53.6648H216.49V64.3127H214.164V64.3062Z" fill="#1C2A53"/>
<path d="M221.096 64.3063V44.1484H234.881V46.5226H223.649V52.7492H233.406V55.0907H223.649V61.9713H235.218V64.3128H221.096V64.3063Z" fill="#1C2A53"/>
<path d="M121.309 20.8315L119.834 24.0691L122.03 30.4003H116.943L115.917 32.6568H122.829L125.012 38.8245H127.818L121.309 20.8315Z" fill="#1C2A53"/>
<path d="M41.9455 20.7728H54.9053C55.5874 20.7728 56.1461 20.2168 56.1461 19.5235V14.4023C56.1461 13.7156 55.5939 13.1531 54.9053 13.1531H41.8871C33.5655 13.1531 29.1417 18.307 29.1417 26.1033V40.8652C29.1417 42.8208 29.421 44.6129 29.9732 46.1957H23.0938C19.4299 46.1957 18.0333 44.6129 18.0333 40.8652V14.834C18.0333 13.9052 17.2862 13.1596 16.3703 13.1596H12.0178C11.0954 13.1596 10.3548 13.9118 10.3548 14.834V40.9895C10.3548 48.7792 14.7787 53.822 23.0418 53.822H54.9118C55.5939 53.822 56.1526 53.266 56.1526 52.5727V47.4515C56.1526 46.7647 55.6004 46.2023 54.9118 46.2023H41.952C38.2882 46.2023 36.8331 44.7372 36.8331 40.9895V37.0652H52.2094C52.7486 37.0652 53.1838 36.627 53.1838 36.0841V30.8386C53.1838 30.2957 52.7486 29.8575 52.2094 29.8575H36.8331V25.9332C36.8331 22.1855 38.2882 20.7793 41.952 20.7793L41.9455 20.7728Z" fill="white"/>
<path d="M104.412 57.8573L109.297 64.3585H112.74L105.712 55.0056L104.412 57.8573Z" fill="#1C2A53"/>
<path d="M97.5394 44.1484H94.0965L100.281 52.3633L101.58 49.5117L97.5394 44.1484Z" fill="#1C2A53"/>
<path d="M117.535 18.6208L91.8293 75H94.6227L113.293 34.0695L120.334 18.6208H117.535Z" fill="#1C2A53"/>
<path d="M117.535 18.6208L91.8293 75H94.6227L113.293 34.0695L120.334 18.6208H117.535Z" fill="url(#paint1_linear_910_789)"/>
<path d="M240.22 61.9844L239.688 63.4429L239.162 61.9844H238.46H238.376H236.427V62.5076H237.07V64.2278H237.654V62.5076H238.376V64.2278H238.96V62.7692H238.973L239.499 64.2278H239.876L240.409 62.7692H240.415V64.2278H241V61.9844H240.22Z" fill="#1C2A53"/>
</g>
<defs>
<linearGradient id="paint0_linear_910_789" x1="53.2423" y1="53.9592" x2="-1.67702" y2="-1.54254" gradientUnits="userSpaceOnUse">
<stop stop-color="#19477C"/>
<stop offset="1" stop-color="#1EABDE"/>
</linearGradient>
<linearGradient id="paint1_linear_910_789" x1="92" y1="75" x2="83.4669" y2="21.2795" gradientUnits="userSpaceOnUse">
<stop stop-color="#1C3360"/>
<stop offset="1" stop-color="#20B5E1"/>
</linearGradient>
<clipPath id="clip0_910_789">
<rect width="241" height="75" fill="white"/>
</clipPath>
</defs>
</svg>
