<svg width="800" height="460" xmlns="http://www.w3.org/2000/svg">
  <!-- Header -->
  <rect width="800" height="48" fill="#FFFFFF" stroke="#DADCE0"/>
  <rect x="12" y="10" width="28" height="28" rx="4" fill="#1A73E8"/>
  <text x="19" y="29" fill="white" font-size="12" font-weight="bold" font-family="sans-serif">T</text>
  <text x="48" y="30" fill="#202124" font-size="13" font-weight="600" font-family="sans-serif">TLE Reporting</text>

  <!-- Dashboard header -->
  <rect x="0" y="48" width="800" height="44" fill="white"/>
  <text x="50" y="76" fill="#202124" font-size="16" font-weight="600" font-family="sans-serif">📊 TLE Pipeline Dashboard</text>
  <rect x="580" y="58" width="90" height="26" rx="4" fill="none" stroke="#5F6368"/>
  <text x="593" y="76" fill="#5F6368" font-size="10" font-family="sans-serif">Edit Layout</text>
  <text x="12" y="76" fill="#5F6368" font-size="14" font-family="sans-serif">←</text>

  <!-- Tabs -->
  <rect x="0" y="92" width="800" height="32" fill="#F8F9FA"/>
  <rect x="12" y="96" width="120" height="24" rx="4 4 0 0" fill="#1A73E8"/>
  <text x="28" y="112" fill="white" font-size="10" font-family="sans-serif">Empower Loans</text>
  <rect x="138" y="96" width="70" height="24" rx="4 4 0 0" fill="white" stroke="#E8EAED"/>
  <text x="158" y="112" fill="#5F6368" font-size="10" font-family="sans-serif">Leads</text>
  <rect x="214" y="96" width="60" height="24" rx="4 4 0 0" fill="white" stroke="#E8EAED"/>
  <text x="232" y="112" fill="#5F6368" font-size="10" font-family="sans-serif">Calls</text>

  <!-- Tile 1 -->
  <rect x="12" y="132" width="380" height="310" rx="4" fill="white" stroke="#E8EAED"/>
  <rect x="12" y="132" width="380" height="30" rx="4 4 0 0" fill="#F8F9FA"/>
  <text x="22" y="152" fill="#202124" font-size="11" font-weight="600" font-family="sans-serif">Loans By Status</text>
  <text x="352" y="152" fill="#5F6368" font-size="12" font-family="sans-serif">📊</text>

  <!-- Tile 1 table -->
  <rect x="18" y="168" width="368" height="20" fill="#F8F9FA"/>
  <text x="24" y="182" fill="#202124" font-size="9" font-weight="600" font-family="sans-serif">Status</text>
  <text x="140" y="182" fill="#202124" font-size="9" font-weight="600" font-family="sans-serif">Count</text>
  <text x="210" y="182" fill="#202124" font-size="9" font-weight="600" font-family="sans-serif">Volume</text>
  <text x="320" y="182" fill="#202124" font-size="9" font-weight="600" font-family="sans-serif">Average</text>

  <text x="24" y="202" fill="#5F6368" font-size="9" font-family="sans-serif">In Proc</text>
  <text x="155" y="202" fill="#5F6368" font-size="9" font-family="sans-serif">21</text>
  <text x="210" y="202" fill="#5F6368" font-size="9" font-family="sans-serif">$5,165,400</text>
  <text x="320" y="202" fill="#5F6368" font-size="9" font-family="sans-serif">$303,847</text>

  <rect x="18" y="208" width="368" height="16" fill="#F8F9FA"/>
  <text x="24" y="220" fill="#5F6368" font-size="9" font-family="sans-serif">Pre-Docs</text>
  <text x="159" y="220" fill="#5F6368" font-size="9" font-family="sans-serif">7</text>
  <text x="210" y="220" fill="#5F6368" font-size="9" font-family="sans-serif">$2,947,000</text>
  <text x="320" y="220" fill="#5F6368" font-size="9" font-family="sans-serif">$421,000</text>

  <text x="24" y="238" fill="#5F6368" font-size="9" font-family="sans-serif">Docs Out</text>
  <text x="159" y="238" fill="#5F6368" font-size="9" font-family="sans-serif">4</text>
  <text x="210" y="238" fill="#5F6368" font-size="9" font-family="sans-serif">$1,620,000</text>
  <text x="320" y="238" fill="#5F6368" font-size="9" font-family="sans-serif">$405,000</text>

  <!-- Tile 1 footer -->
  <rect x="18" y="400" width="368" height="20" fill="#F1F3F4"/>
  <line x1="18" y1="400" x2="386" y2="400" stroke="#DADCE0" stroke-width="2"/>
  <text x="24" y="414" fill="#202124" font-size="9" font-weight="600" font-family="sans-serif">Totals</text>
  <text x="152" y="414" fill="#202124" font-size="9" font-weight="600" font-family="sans-serif">38</text>
  <text x="210" y="414" fill="#202124" font-size="9" font-weight="600" font-family="sans-serif">$12,502,151</text>
  <text x="320" y="414" fill="#202124" font-size="9" font-weight="600" font-family="sans-serif">$2,346,431</text>

  <!-- Tile 2 -->
  <rect x="404" y="132" width="380" height="310" rx="4" fill="white" stroke="#E8EAED"/>
  <rect x="404" y="132" width="380" height="30" rx="4 4 0 0" fill="#F8F9FA"/>
  <text x="414" y="152" fill="#202124" font-size="11" font-weight="600" font-family="sans-serif">Zero Days In Status</text>
  <text x="744" y="152" fill="#5F6368" font-size="12" font-family="sans-serif">📊</text>

  <!-- Tile 2 table -->
  <rect x="410" y="168" width="368" height="20" fill="#F8F9FA"/>
  <text x="416" y="182" fill="#202124" font-size="9" font-weight="600" font-family="sans-serif">Status</text>
  <text x="532" y="182" fill="#202124" font-size="9" font-weight="600" font-family="sans-serif">Count</text>
  <text x="602" y="182" fill="#202124" font-size="9" font-weight="600" font-family="sans-serif">Volume</text>
  <text x="712" y="182" fill="#202124" font-size="9" font-weight="600" font-family="sans-serif">Average</text>

  <text x="416" y="202" fill="#5F6368" font-size="9" font-family="sans-serif">In Proc</text>
  <text x="544" y="202" fill="#5F6368" font-size="9" font-family="sans-serif">5</text>
  <text x="602" y="202" fill="#5F6368" font-size="9" font-family="sans-serif">$1,250,000</text>
  <text x="712" y="202" fill="#5F6368" font-size="9" font-family="sans-serif">$250,000</text>

  <rect x="410" y="208" width="368" height="16" fill="#F8F9FA"/>
  <text x="416" y="220" fill="#5F6368" font-size="9" font-family="sans-serif">Pre-Docs</text>
  <text x="544" y="220" fill="#5F6368" font-size="9" font-family="sans-serif">2</text>
  <text x="602" y="220" fill="#5F6368" font-size="9" font-family="sans-serif">$620,000</text>
  <text x="712" y="220" fill="#5F6368" font-size="9" font-family="sans-serif">$310,000</text>

  <!-- Tile 2 No Records -->
  <text x="540" y="320" fill="#9AA0A6" font-size="11" font-family="sans-serif">No more records</text>

  <!-- Tile 2 footer -->
  <rect x="410" y="400" width="368" height="20" fill="#F1F3F4"/>
  <line x1="410" y1="400" x2="778" y2="400" stroke="#DADCE0" stroke-width="2"/>
  <text x="416" y="414" fill="#202124" font-size="9" font-weight="600" font-family="sans-serif">Totals</text>
  <text x="544" y="414" fill="#202124" font-size="9" font-weight="600" font-family="sans-serif">7</text>
  <text x="602" y="414" fill="#202124" font-size="9" font-weight="600" font-family="sans-serif">$1,870,000</text>
  <text x="712" y="414" fill="#202124" font-size="9" font-weight="600" font-family="sans-serif">$267,143</text>
</svg>
